<svg xmlns="http://www.w3.org/2000/svg" width="56" height="56" viewBox="0 0 56 56"><defs><linearGradient id="i6vya" x1="56" x2="0" y1="0" y2="56" gradientUnits="userSpaceOnUse"><stop offset="0" stop-color="#2084ff"/><stop offset="1" stop-color="#0052d4"/></linearGradient></defs><g><g><path fill="url(#i6vya)" d="M44 21.58l-19.62 19.6a2.792 2.792 0 0 1-1.98.82c-.717 0-1.4-.274-1.98-.82L12 32.78a2.835 2.835 0 0 1 0-3.96 2.846 2.846 0 0 1 4 0l6.4 6.42L40 17.62a2.846 2.846 0 0 1 4 0 2.834 2.834 0 0 1 0 3.96zM28 0C12.536 0 0 12.536 0 28s12.536 28 28 28 28-12.536 28-28S43.464 0 28 0z"/></g></g></svg>